<?xml version="1.0" encoding="UTF-8"?><svg id="Layer_1" xmlns="http://www.w3.org/2000/svg" xmlns:xlink="http://www.w3.org/1999/xlink" viewBox="0 0 376 376"><defs><style>.cls-1{fill:none;}.cls-2{clip-path:url(#clippath-1);}.cls-3{clip-path:url(#clippath-2);}.cls-4{fill:#fff;}.cls-5{fill:#0c1f3c;}.cls-6{clip-path:url(#clippath);}</style><clipPath id="clippath"><rect class="cls-1" x="38" y="38" width="300" height="300"/></clipPath><clipPath id="clippath-1"><rect class="cls-1" x="38" y="38" width="300" height="300"/></clipPath><clipPath id="clippath-2"><rect class="cls-1" x="77.91" y="160.94" width="222.87" height="53.2"/></clipPath></defs><g id="Artwork_75"><g class="cls-6"><g class="cls-2"><path class="cls-5" d="M338,188c0,82.84-67.16,150-150,150S38,270.84,38,188,105.16,38,188,38s150,67.16,150,150"/></g><g class="cls-3"><path class="cls-4" d="M77.91,214.13v-53.2h30.24c6.81,0,12.12,1.46,15.77,4.2,3.65,2.74,5.56,6.8,5.56,11.75,0,4.92-1.88,8.97-5.49,11.72-3.6,2.75-8.86,4.22-15.59,4.22-.09,0-.17,0-.25,0h-20.13s0,21.3,0,21.3h-10.11ZM105.12,185.89h.31c4.91,0,8.42-.85,10.66-2.38,2.23-1.53,3.27-3.69,3.28-6.63-.01-2.97-1.07-5.12-3.35-6.65-2.29-1.52-5.88-2.36-10.9-2.36h-17.09v18.02h17.1ZM133.87,214.13v-53.2h10.11v46.26h35.86v6.94h-45.97ZM224.04,160.94l13,42.42,14.86-42.42h10.55l14.67,42.43,13.47-42.43h10.19l-18.37,52.83-.13.37h-10.17l-15.17-42.95-15.36,42.95h-10.18l-15.41-46.26h-20.69v46.26h-10.11v-46.26h-22.58v-6.94h61.44Z"/></g></g></g></svg>